# xmcd
#
# Track frame offsets:
#	150
#	14568
#	29607
#	44333
#	56850
#	73771
#	89863
#	104557
#	120314
#	139001
#	156208
#	171869
#	185304
#	197724
#	210890
#	226212
#
# Disc length: 3177 seconds
#
# Revision: 1
# Processed by: cddbd v1.5.1PL0 Copyright (c) Steve Scherf et al.
# Submitted via: audiograbber 1.83.01
#
DISCID=e50c6710
DTITLE=Πόλυ Πάνου - Αυτά που ήθελα να πω
DYEAR=1900
DGENRE=
TTITLE0=Μολυβιά
TTITLE1=Οι γλάροι
TTITLE2=Κοινωνία ένοχη
TTITLE3=Παράπονα και κλάμματα
TTITLE4=Σκαλοπάτι σκαλοπάτι
TTITLE5=Τρελοκόριτσο
TTITLE6=Μπορεί
TTITLE7=Μάγισσες φέρτε βότανα
TTITLE8=Αγάπησα και μίσησα
TTITLE9=Οτι αρχίζει ωραία
TTITLE10=Βαθιά στη θάλασσα θα πέσω
TTITLE11=Το βουνό με το βουνό δεν σμίγει
TTITLE12=Οταν πέσεις σε άλλα χέρια
TTITLE13=Με τον βορριά
TTITLE14=Να πεθάνεις να πεθάνεις
TTITLE15=Αγάπη μου επικίνδυνη
EXTD=
EXTT0=
EXTT1=
EXTT2=
EXTT3=
EXTT4=
EXTT5=
EXTT6=
EXTT7=
EXTT8=
EXTT9=
EXTT10=
EXTT11=
EXTT12=
EXTT13=
EXTT14=
EXTT15=
PLAYORDER=
